PathFileType	4	(X/Y/Z)	D:\TRACE\v60_Jaco2_6-2-23\v60_baseline_2-platform.trc
DataRate	CameraRate	NumFrames	NumMarkers	Units	OrigDataRate	OrigDataStartFrame	OrigNumFrames
100.00	100.00	      67	5	mm	100.00	4565	      7303
Frame#	Time	Left_Front			Right_Front			Left_Aft			Right_Aft			Post			
		X1	Y1	Z1	X2	Y2	Z2	X3	Y3	Z3	X4	Y4	Z4	X5	Y5	Z5	

4565	45.640	-800.58997	8.92657	-638.70453	769.38281	10.15022	-644.38409	-708.62122	7.73292	496.18112	733.16034	6.75976	505.21649	-14.17943	1308.18921	-961.88324	
4566	45.650	-800.52887	8.89673	-638.83044	769.30499	10.19241	-644.40399	-708.59210	7.69050	496.14383	733.20941	6.79486	505.22922	-14.12856	1308.12415	-961.84991	
4567	45.660	-800.51355	8.93849	-638.88916	769.33075	10.19456	-644.48438	-708.59753	7.72777	496.11023	733.18420	6.78301	505.21231	-14.15792	1308.08350	-961.89911	
4568	45.670	-800.50348	9.06563	-638.77222	769.34619	10.26647	-644.45679	-708.61255	7.82993	496.14673	733.15680	6.76143	505.23294	-14.14820	1308.06592	-961.87543	
4569	45.680	-800.62634	8.99925	-638.65588	769.31445	10.14902	-644.41260	-708.65198	7.84829	496.14877	733.11676	6.73174	505.20355	-14.22214	1308.12292	-961.98499	
4570	45.690	-800.73804	8.78032	-638.67700	769.31488	10.08889	-644.34857	-708.63080	7.79384	496.17026	733.24054	6.74233	505.23706	-14.14266	1308.16907	-962.09009	
4571	45.700	-800.64984	8.60292	-638.84644	769.32990	10.18595	-644.47681	-708.66266	7.88096	496.14642	733.32135	6.76888	505.23651	-13.99349	1308.15320	-962.10931	
4572	45.710	-800.58270	8.76792	-638.90704	769.38147	10.13200	-644.38666	-708.62439	7.82807	496.16650	733.31427	6.79247	505.22928	-14.15000	1308.17883	-962.00793	
4573	45.720	-800.58997	8.91955	-638.77155	769.34216	10.14173	-644.42566	-708.58264	7.72017	496.14191	733.20844	6.65512	505.23605	-14.17030	1308.24292	-962.06018	
4574	45.730	-800.57104	8.98763	-638.64447	769.30457	10.20455	-644.44965	-708.62775	7.80771	496.20010	733.10229	6.65710	505.21237	-14.22048	1308.25867	-961.92682	
4575	45.740	-800.65283	8.91581	-638.62604	769.32642	10.28395	-644.42596	-708.61206	7.85923	496.17358	733.20087	6.74025	505.23746	-14.22875	1308.18921	-961.62701	
4576	45.750	-800.67401	8.74358	-638.75305	769.40918	10.17158	-644.39703	-708.64746	7.88844	496.14993	733.22247	6.76522	505.22211	-14.23132	1308.10559	-961.40411	
4577	45.760	-800.59497	8.64679	-638.96436	769.38202	10.13187	-644.42041	-708.65320	7.85581	496.14334	733.28741	6.82313	505.24146	-14.25424	1308.08252	-961.40619	
4578	45.770	-800.56665	8.77904	-638.85931	769.28888	10.16893	-644.40717	-708.63458	7.79318	496.15283	733.24603	6.78145	505.24194	-14.24290	1308.01672	-961.48639	
4579	45.780	-800.56293	8.85686	-638.77155	769.35297	10.16377	-644.40631	-708.58026	7.78986	496.20026	733.12909	6.66546	505.18973	-14.12988	1308.05554	-961.62360	
4580	45.790	-800.61700	8.87191	-638.66638	769.30383	10.16539	-644.44519	-708.58716	7.81422	496.19052	733.06201	6.67200	505.23306	-14.13070	1308.14246	-962.00476	
4581	45.800	-800.66217	8.92337	-638.64459	769.33929	10.24248	-644.44781	-708.57227	7.81682	496.18777	733.09845	6.64051	505.23373	-14.05135	1308.18347	-962.23920	
4582	45.810	-800.66693	8.91477	-638.70337	769.35822	10.27899	-644.42322	-708.64001	7.85308	496.15494	733.13525	6.69686	505.21725	-13.98505	1308.33411	-962.34717	
4583	45.820	-800.59979	8.79660	-638.79846	769.30023	10.19695	-644.44385	-708.62537	7.75745	496.15344	732.78137	6.68695	505.35577	-14.01096	1308.31262	-962.31360	
4584	45.830	-800.59253	8.83373	-638.76514	769.29095	10.17073	-644.40161	-708.60767	7.78114	496.18991	733.13391	6.67108	505.22452	-13.97821	1308.03613	-962.14325	
4585	45.840	-800.65057	8.84794	-638.73193	769.22083	10.15768	-644.43304	-708.56952	7.79962	496.21951	733.09210	6.63499	505.25235	-14.13745	1308.04504	-961.98718	
4586	45.850	-800.66815	8.88451	-638.64423	769.36926	10.27409	-644.41302	-708.62793	7.87572	496.20367	733.14044	6.72012	505.21506	-14.14071	1308.14294	-961.72247	
4587	45.860	-800.62286	8.89452	-638.75372	769.34229	10.23539	-644.46338	-708.64294	7.89096	496.13177	733.26563	6.78686	505.22034	-14.13462	1308.15906	-961.63086	
4588	45.870	-800.58093	8.79342	-638.86938	769.30341	10.22475	-644.44653	-708.70471	7.90419	496.14709	733.25439	6.82290	505.22079	-14.18784	1308.09497	-961.50983	
4589	45.880	-800.56927	8.69964	-638.94849	769.29785	10.18218	-644.44604	-708.67755	7.83289	496.11871	733.20630	6.76858	505.22556	-14.20788	1308.11035	-961.57635	
4590	45.890	-800.58240	8.72088	-638.82318	769.30560	10.17110	-644.40942	-708.64838	7.81586	496.18109	733.13678	6.69696	505.23239	-14.19691	1308.11829	-961.74170	
4591	45.900	-800.62646	8.90740	-638.69696	769.27167	10.18754	-644.47107	-708.62622	7.85278	496.19955	732.96588	6.51035	505.00668	-14.13398	1308.22278	-961.91193	
4592	45.910	-800.62347	8.97796	-638.70789	769.30835	10.29429	-644.44867	-708.65601	7.89438	496.19806	732.75867	6.37066	504.89154	-14.13381	1308.31653	-962.07935	
4593	45.920	-800.56854	8.89274	-638.73486	769.32617	10.25895	-644.46161	-708.64594	7.83834	496.13803	732.73303	6.31530	505.00378	-14.11752	1308.33423	-962.10132	
4594	45.930	-800.63031	8.76186	-638.79968	769.31274	10.19119	-644.43616	-708.64392	7.82007	496.18243	733.15051	6.71018	505.22751	-14.08913	1308.17688	-961.99115	
4595	45.940	-800.58588	8.72626	-638.79321	769.31470	10.13940	-644.37183	-708.60254	7.76544	496.15244	733.12311	6.65998	505.21707	-14.15985	1308.10168	-961.81897	
4596	45.950	-800.61267	8.77466	-638.82397	769.35211	10.13526	-644.40790	-708.61597	7.81671	496.20172	733.12897	6.71036	505.23245	-14.16706	1308.08252	-961.78027	
4597	45.960	-800.67621	8.85149	-638.68115	769.30920	10.20755	-644.39325	-708.60883	7.86527	496.18561	733.13275	6.68236	505.21658	-14.22626	1308.10303	-961.77405	
4598	45.970	-800.63080	8.83359	-638.72601	769.37720	10.20236	-644.42566	-708.64166	7.88388	496.17056	733.17981	6.70931	505.21234	-14.15086	1308.12817	-961.80225	
4599	45.980	-800.64502	8.86799	-638.69141	769.36548	10.21397	-644.45245	-708.61243	7.81237	496.20425	733.20105	6.72103	505.23749	-14.05315	1308.16138	-961.96313	
4600	45.990	-800.60016	8.73946	-638.80023	769.30688	10.17536	-644.48846	-708.60236	7.81490	496.19327	733.08008	6.65783	505.21432	-14.14028	1308.16064	-961.99219	
4601	46.000	-800.57764	8.79573	-638.79871	769.32947	10.17110	-644.41022	-708.57916	7.76944	496.19214	733.12024	6.66149	505.22894	-14.14949	1308.14929	-961.97681	
4602	46.010	-800.62823	8.90925	-638.71844	769.38098	10.20756	-644.41516	-708.57361	7.80839	496.21622	733.08868	6.64213	505.22263	-14.17214	1308.18054	-961.95148	
4603	46.020	-800.65143	8.89999	-638.71918	769.29968	10.25589	-644.39496	-708.61346	7.85939	496.17398	733.17590	6.72805	505.22134	-14.15546	1308.22534	-961.91522	
4604	46.030	-800.60504	8.89159	-638.77185	769.39307	10.25539	-644.41461	-708.64929	7.86949	496.14999	733.23547	6.76008	505.20676	-14.07904	1308.21741	-961.74463	
4605	46.040	-800.55499	8.79352	-638.86603	769.34680	10.21418	-644.45288	-708.65686	7.90860	496.14331	733.23480	6.77486	505.21738	-14.20780	1308.14343	-961.67749	
4606	46.050	-800.52808	8.93011	-638.81073	769.28442	10.21733	-644.42352	-708.61957	7.85062	496.16772	733.11450	6.73079	505.20132	-14.32741	1308.11609	-961.58276	
4607	46.060	-800.50983	9.05333	-638.84363	769.32538	10.23272	-644.45197	-708.61450	7.85845	496.16068	733.16443	6.79034	505.20154	-14.33789	1308.07312	-961.61560	
4608	46.070	-800.58063	9.01933	-638.70721	769.32135	10.22650	-644.45929	-708.63593	7.86158	496.15649	733.16913	6.79326	505.20285	-14.15372	1308.12219	-961.80872	
4609	46.080	-800.62830	8.85988	-638.71832	769.30737	10.13642	-644.40002	-708.63336	7.82002	496.16623	733.23730	6.79310	505.23877	-14.08062	1308.17603	-962.00354	
4610	46.090	-800.63770	8.78551	-638.77380	769.41187	9.92972	-644.36859	-708.63666	7.68251	496.15344	733.22089	6.76841	505.21625	-14.29702	1308.25879	-962.15680	
4611	46.100	-800.55908	8.68850	-638.88287	769.37268	10.08461	-644.38123	-708.64990	7.75416	496.15210	733.19623	6.76440	505.22296	-14.16749	1308.22791	-962.19061	
4612	46.110	-800.50757	8.91073	-638.83215	769.31085	10.15813	-644.43964	-708.60498	7.63036	496.11206	733.13489	6.70392	505.22641	-14.04234	1308.16882	-962.09973	
4613	46.120	-800.53796	9.10742	-638.71741	769.40656	10.07479	-644.32379	-708.60706	7.71719	496.16449	733.15308	6.74020	505.24182	-14.17574	1308.23572	-961.89246	
4614	46.130	-800.56555	9.06343	-638.67505	769.40118	10.06664	-644.38910	-708.54120	7.77817	496.17239	733.18579	6.76926	505.23425	-14.23890	1308.20081	-961.70618	
4615	46.140	-800.65540	8.91752	-638.66803	769.41119	10.15790	-644.35706	-708.73120	8.02266	496.12595	733.16595	6.73780	505.23846	-14.28237	1308.12683	-961.46014	
4616	46.150	-800.63831	8.79874	-638.78381	769.35657	10.09953	-644.38971	-708.78284	7.97229	496.10037	733.15479	6.77648	505.21271	-14.26021	1308.01855	-961.40253	
4617	46.160	-800.55341	8.80708	-638.90411	769.29156	10.01159	-644.36029	-708.82373	7.94108	496.04599	733.14960	6.77458	505.24240	-14.26671	1307.98865	-961.39880	
4618	46.170	-800.48505	8.90677	-638.79974	769.31158	9.98787	-644.39056	-708.72485	7.93180	496.15170	733.10687	6.72197	505.22360	-14.24693	1308.01685	-961.58563	
4619	46.180	-800.54370	9.05941	-638.70209	769.38922	10.11809	-644.36420	-708.70190	7.95583	496.17636	733.16626	6.74360	505.21875	-14.12099	1308.15149	-961.91168	
4620	46.190	-800.59460	9.04442	-638.63702	769.36255	10.21231	-644.37787	-708.72876	7.97885	496.15860	733.17194	6.73666	505.22366	-14.08303	1308.21497	-962.19366	
4621	46.200	-800.59088	8.99029	-638.70392	769.34735	10.15720	-644.43713	-708.80603	7.98314	496.15506	733.15839	6.74871	505.24219	-14.23941	1308.27539	-962.26361	
4622	46.210	-800.57349	8.93379	-638.77020	769.40710	10.12156	-644.37799	-708.76624	7.85064	496.12921	733.19794	6.77051	505.23160	-14.08686	1308.15015	-962.25787	
4623	46.220	-800.47583	8.86085	-638.85529	769.35864	10.06171	-644.35840	-708.75775	7.85846	496.10684	733.20923	6.78377	505.23065	-14.10452	1308.12585	-962.07635	
4624	46.230	-800.52191	9.07037	-638.72900	769.29034	10.10670	-644.39801	-708.68176	7.93155	496.13431	733.28625	6.81855	505.22760	-14.24192	1308.10461	-961.92810	
4625	46.240	-800.57379	8.99540	-638.71863	769.29626	10.16552	-644.41583	-708.71277	8.03846	496.13907	732.95251	6.83032	505.29822	-14.26722	1308.14978	-961.70062	
4626	46.250	-800.60925	8.88775	-638.77246	769.36761	10.12891	-644.41156	-708.73907	8.00903	496.08405	733.22528	6.81887	505.21594	-14.19212	1308.13538	-961.52423	
4627	46.260	-800.66022	8.88595	-638.74042	769.30005	10.13718	-644.37469	-708.83447	7.98256	496.08997	733.21967	6.82400	505.22772	-14.35710	1308.10242	-961.45404	
4628	46.270	-800.54608	8.75536	-638.84314	769.40985	10.03402	-644.33246	-708.73712	7.85942	496.09216	733.21875	6.80215	505.22937	-14.36615	1308.10132	-961.45752	
4629	46.280	-800.51947	8.87471	-638.81409	769.36859	10.04405	-644.37952	-708.73413	7.91927	496.11481	733.21851	6.78761	505.25653	-14.21315	1308.10681	-961.65668	
4630	46.290	-800.57690	8.93651	-638.78375	769.32166	10.16307	-644.38763	-708.68365	7.95335	496.16681	733.23145	6.76551	505.25223	-14.12262	1308.15198	-961.80951	
4631	46.300	-800.60992	9.05293	-638.66815	769.31421	10.20363	-644.39789	-708.72693	7.97551	496.15570	733.20978	6.75891	505.21564	-14.18812	1308.25525	-961.97034	
